<svg xmlns="http://www.w3.org/2000/svg" width="20" height="20" viewBox="0 0 20 20">
  <path d="M6.15382 19.5576C5.66794 19.5576 5.25481 19.3874 4.91442 19.0471C4.57404 18.7067 4.40385 18.2936 4.40385 17.8077C4.40385 17.3218 4.57404 16.9086 4.91442 16.5683C5.25481 16.2279 5.66794 16.0577 6.15382 16.0577C6.63972 16.0577 7.05287 16.2279 7.39325 16.5683C7.73363 16.9086 7.90382 17.3218 7.90382 17.8077C7.90382 18.2936 7.73363 18.7067 7.39325 19.0471C7.05287 19.3874 6.63972 19.5576 6.15382 19.5576ZM15.8461 19.5576C15.3602 19.5576 14.9471 19.3874 14.6067 19.0471C14.2663 18.7067 14.0961 18.2936 14.0961 17.8077C14.0961 17.3218 14.2663 16.9086 14.6067 16.5683C14.9471 16.2279 15.3602 16.0577 15.8461 16.0577C16.332 16.0577 16.7451 16.2279 17.0855 16.5683C17.4259 16.9086 17.5961 17.3218 17.5961 17.8077C17.5961 18.2936 17.4259 18.7067 17.0855 19.0471C16.7451 19.3874 16.332 19.5576 15.8461 19.5576ZM5.01535 3.74998L7.54997 9.05768H14.3673C14.425 9.05768 14.4763 9.04325 14.5211 9.0144C14.566 8.98555 14.6045 8.94548 14.6365 8.8942L17.3192 4.0192C17.3577 3.94868 17.3609 3.88618 17.3288 3.8317C17.2968 3.7772 17.2423 3.74995 17.1653 3.74995L5.01535 3.74998ZM4.29613 2.25003H18.1807C18.5897 2.25003 18.899 2.42406 19.1086 2.77213C19.3182 3.12021 19.3281 3.47566 19.1384 3.83847L15.9346 9.64225C15.7705 9.93072 15.5535 10.1554 15.2836 10.3163C15.0137 10.4772 14.7179 10.5576 14.3961 10.5576H7.09998L5.94227 12.673C5.89099 12.75 5.88939 12.8333 5.93747 12.9231C5.98556 13.0128 6.05767 13.0577 6.15382 13.0577H17.5961V14.5576H6.15382C5.48717 14.5576 4.98622 14.2701 4.65095 13.6952C4.3157 13.1202 4.30384 12.5461 4.61538 11.9731L6.04233 9.40765L2.40385 1.74995H0.5V0.25H3.34612L4.29613 2.25V2.25003Z" />
</svg>