<svg xmlns="http://www.w3.org/2000/svg" width="133" height="15" viewBox="0 0 133 15" >
  <g clip-path="url(#clip0_1_213)">
    <path d="M130.91 36.82L130.25 34.64C130.143 34.3733 130.037 34.2 129.93 34.12C129.543 33.7733 128.91 33.6 128.03 33.6C127.163 33.6 126.51 33.7533 126.07 34.06C125.63 34.3667 125.41 34.9133 125.41 35.7C125.41 36.5533 125.763 37.2067 126.47 37.66C126.617 37.7667 126.797 37.88 127.01 38L130.05 39.58C131.65 40.4067 132.45 41.6467 132.45 43.3C132.45 44.0067 132.363 44.5667 132.19 44.98C132.017 45.3933 131.67 45.9 131.15 46.5C130.43 47.2867 129.29 47.68 127.73 47.68C126.49 47.68 125.19 47.38 123.83 46.78C123.923 45.5 123.97 44.1533 123.97 42.74H124.71L124.99 43.82C125.177 44.54 125.317 45.0067 125.41 45.22C125.517 45.42 125.697 45.62 125.95 45.82C126.63 46.1133 127.377 46.26 128.19 46.26C129.003 46.26 129.603 46.1067 129.99 45.8C130.377 45.48 130.57 44.9067 130.57 44.08C130.57 42.9333 129.957 42.0333 128.73 41.38L127.11 40.58C126.323 40.1667 125.81 39.8867 125.57 39.74C125.33 39.5933 125.13 39.44 124.97 39.28L124.81 39.1C124.143 38.38 123.81 37.56 123.81 36.64C123.81 35.7067 123.957 34.9667 124.25 34.42C124.557 33.86 125.157 33.3333 126.05 32.84C126.69 32.4933 127.523 32.32 128.55 32.32C129.59 32.32 130.59 32.5733 131.55 33.08L131.79 33.3C131.79 33.9667 131.73 35.14 131.61 36.82H130.91Z" />
    <path d="M110.802 32.8401L111.022 32.6201H122.742L122.962 32.8401C122.896 33.9734 122.862 35.2867 122.862 36.7801H122.162C121.816 35.5267 121.589 34.7934 121.482 34.5801C121.429 34.4201 121.369 34.2734 121.302 34.1401C121.209 34.0467 121.089 33.9867 120.942 33.9601C120.249 33.8267 119.669 33.7601 119.202 33.7601C118.736 33.7601 118.336 33.7934 118.002 33.8601C117.896 36.3801 117.842 40.3334 117.842 45.7201C117.842 45.9601 117.962 46.1534 118.202 46.3001C118.456 46.4334 118.709 46.5201 118.962 46.5601C119.216 46.6001 119.562 46.6401 120.002 46.6801V47.3801H113.602V46.6801C114.669 46.5867 115.322 46.4201 115.562 46.1801C115.682 46.0601 115.742 45.9067 115.742 45.7201C115.782 43.1334 115.802 40.7134 115.802 38.4601C115.802 36.1934 115.789 34.6601 115.762 33.8601C115.429 33.7934 115.029 33.7601 114.562 33.7601C114.096 33.7601 113.516 33.8267 112.822 33.9601C112.676 33.9867 112.556 34.0467 112.462 34.1401C112.396 34.2734 112.336 34.4201 112.282 34.5801C112.176 34.7934 111.949 35.5267 111.602 36.7801H110.902C110.902 35.2867 110.869 33.9734 110.802 32.8401Z" />
    <path d="M97.3448 36.8401L97.3248 34.9801V34.0401C97.2715 33.7067 96.9848 33.5134 96.4648 33.4601L95.4648 33.3601V32.6201H99.2448C99.4048 33.0867 102.265 36.9467 107.825 44.2001C107.772 43.4534 107.745 42.1267 107.745 40.2201C107.745 38.3001 107.718 36.4601 107.665 34.7001C107.652 34.2334 107.552 33.9201 107.365 33.7601C107.178 33.5867 106.678 33.4601 105.865 33.3801V32.6201H110.705V33.3401C109.812 33.4201 109.272 33.6001 109.085 33.8801L108.965 34.5001C108.872 37.7401 108.825 40.9401 108.825 44.1001L108.865 47.3801H107.685C107.152 46.5801 106.478 45.6667 105.665 44.6401C104.852 43.6001 104.192 42.7601 103.685 42.1201C102.672 40.8134 100.925 38.5867 98.4448 35.4401V41.5801C98.5115 44.1267 98.5448 45.5267 98.5448 45.7801C98.5448 46.0334 98.6915 46.2201 98.9848 46.3401C99.2915 46.4601 99.7182 46.5467 100.265 46.6001V47.3801H95.5448V46.6601C96.5848 46.5667 97.1382 46.2734 97.2048 45.7801C97.2982 45.1134 97.3448 42.6467 97.3448 38.3801V36.8401Z" />
    <path d="M80.3672 47.3801V46.6601C80.8072 46.6201 81.1339 46.5267 81.3472 46.3801C81.5605 46.2201 81.7872 45.9267 82.0272 45.5001C82.2672 45.0601 82.6072 44.2867 83.0472 43.1801L87.2072 32.7801C87.3005 32.7134 87.5139 32.6534 87.8472 32.6001C88.1939 32.5467 88.4339 32.5201 88.5672 32.5201C91.9805 40.9601 93.7405 45.2867 93.8472 45.5001C93.9672 45.7134 94.0739 45.8867 94.1672 46.0201C94.2739 46.1401 94.4405 46.2667 94.6672 46.4001C94.8939 46.5334 95.1605 46.6201 95.4672 46.6601V47.3801H89.7472V46.7001C90.9339 46.6067 91.5272 46.3134 91.5272 45.8201C91.5272 45.4601 91.3872 44.9601 91.1072 44.3201L90.7272 43.4401C90.5672 43.0801 90.4272 42.7334 90.3072 42.4001H84.5272C84.2872 42.9467 84.0205 43.6067 83.7272 44.3801C83.4339 45.1401 83.2872 45.5867 83.2872 45.7201C83.2872 46.2001 83.8872 46.4934 85.0872 46.6001V47.3801H80.3672ZM84.8072 41.5401H90.0472L87.3872 34.9601L84.8072 41.5401Z" />
    <path d="M70.0947 47.3801V46.6401C70.5214 46.6134 70.8481 46.5801 71.0747 46.5401C71.6214 46.4201 71.8947 46.1467 71.8947 45.7201C71.8947 41.0134 71.8481 37.1601 71.7547 34.1601C71.7414 33.8534 71.6347 33.6534 71.4347 33.5601C71.2481 33.4667 70.8947 33.4067 70.3747 33.3801L70.0947 33.3601V32.6201H75.8947V33.3601L75.6147 33.3801C75.2414 33.4067 74.9547 33.4334 74.7547 33.4601C74.2347 33.5534 73.9747 33.7867 73.9747 34.1601C73.8814 36.8267 73.8347 40.6801 73.8347 45.7201C73.8347 46.2401 74.4881 46.5001 75.7947 46.5001H76.2147C77.6414 46.5001 78.4481 46.4201 78.6347 46.2601C78.9681 45.9667 79.3081 45.1534 79.6547 43.8201L79.9347 42.7401H80.6747C80.6347 43.0867 80.5947 43.8934 80.5547 45.1601C80.5147 46.4267 80.4947 47.1667 80.4947 47.3801H70.0947Z" />
    <path d="M61.5802 40.6201L61.5402 45.7201C61.5402 46.0801 61.7802 46.3134 62.2602 46.4201C62.6602 46.5267 63.1535 46.6001 63.7402 46.6401L64.5002 46.7001V47.3801H57.6602V46.6401C58.0602 46.6134 58.3668 46.5801 58.5802 46.5401C58.7935 46.5001 58.9935 46.4134 59.1802 46.2801C59.3668 46.1467 59.4602 45.9601 59.4602 45.7201C59.5002 44.3601 59.5202 42.4334 59.5202 39.9401C59.5202 37.4467 59.5002 35.5201 59.4602 34.1601C59.4468 33.8667 59.3402 33.6734 59.1402 33.5801C58.9535 33.4734 58.6002 33.4067 58.0802 33.3801L57.8002 33.3601V32.6201C58.5468 32.6734 59.4935 32.7001 60.6402 32.7001C61.8002 32.7001 62.7135 32.6667 63.3802 32.6001C64.0602 32.5334 64.4668 32.5001 64.6002 32.5001H65.0002C65.7868 32.5001 66.4602 32.6201 67.0202 32.8601C67.5935 33.0867 68.0268 33.4067 68.3202 33.8201C68.8535 34.5801 69.1202 35.4934 69.1202 36.5601C69.1202 37.2801 68.8535 38.0201 68.3202 38.7801C67.2802 40.2201 65.7468 40.9401 63.7202 40.9401C62.7735 40.9401 62.0602 40.8334 61.5802 40.6201ZM61.6002 39.3401C62.0535 39.7401 62.8202 39.9401 63.9002 39.9401C64.4468 39.9401 64.9202 39.8667 65.3202 39.7201C65.7202 39.5601 66.0135 39.3801 66.2002 39.1801C66.4002 38.9801 66.5535 38.7267 66.6602 38.4201C66.8068 37.9801 66.8802 37.5267 66.8802 37.0601C66.8802 36.5934 66.8668 36.2467 66.8402 36.0201C66.8268 35.7934 66.7735 35.5134 66.6802 35.1801C66.5202 34.5134 66.0735 34.0067 65.3402 33.6601C65.0735 33.5401 64.8802 33.4801 64.7602 33.4801C63.3335 33.4801 62.3868 33.5601 61.9202 33.7201L61.7002 33.9401C61.6602 35.0201 61.6268 36.8201 61.6002 39.3401Z" />
    <path d="M42.2827 47.3801V46.6601C42.7227 46.6201 43.0494 46.5267 43.2627 46.3801C43.476 46.2201 43.7027 45.9267 43.9427 45.5001C44.1827 45.0601 44.5227 44.2867 44.9627 43.1801L49.1227 32.7801C49.216 32.7134 49.4294 32.6534 49.7627 32.6001C50.1094 32.5467 50.3494 32.5201 50.4827 32.5201C53.896 40.9601 55.656 45.2867 55.7627 45.5001C55.8827 45.7134 55.9894 45.8867 56.0827 46.0201C56.1894 46.1401 56.356 46.2667 56.5827 46.4001C56.8094 46.5334 57.0761 46.6201 57.3827 46.6601V47.3801H51.6627V46.7001C52.8494 46.6067 53.4427 46.3134 53.4427 45.8201C53.4427 45.4601 53.3027 44.9601 53.0227 44.3201L52.6427 43.4401C52.4827 43.0801 52.3427 42.7334 52.2227 42.4001H46.4427C46.2027 42.9467 45.936 43.6067 45.6427 44.3801C45.3494 45.1401 45.2027 45.5867 45.2027 45.7201C45.2027 46.2001 45.8027 46.4934 47.0027 46.6001V47.3801H42.2827ZM46.7227 41.5401H51.9627L49.3027 34.9601L46.7227 41.5401Z" />
    <path d="M31.2153 32.8401L31.4353 32.6201H43.1553L43.3753 32.8401C43.3087 33.9734 43.2753 35.2867 43.2753 36.7801H42.5753C42.2287 35.5267 42.002 34.7934 41.8953 34.5801C41.842 34.4201 41.782 34.2734 41.7153 34.1401C41.622 34.0467 41.502 33.9867 41.3553 33.9601C40.662 33.8267 40.082 33.7601 39.6153 33.7601C39.1487 33.7601 38.7487 33.7934 38.4153 33.8601C38.3087 36.3801 38.2553 40.3334 38.2553 45.7201C38.2553 45.9601 38.3753 46.1534 38.6153 46.3001C38.8687 46.4334 39.122 46.5201 39.3753 46.5601C39.6287 46.6001 39.9753 46.6401 40.4153 46.6801V47.3801H34.0153V46.6801C35.082 46.5867 35.7353 46.4201 35.9753 46.1801C36.0953 46.0601 36.1553 45.9067 36.1553 45.7201C36.1953 43.1334 36.2153 40.7134 36.2153 38.4601C36.2153 36.1934 36.202 34.6601 36.1753 33.8601C35.842 33.7934 35.442 33.7601 34.9753 33.7601C34.5087 33.7601 33.9287 33.8267 33.2353 33.9601C33.0887 33.9867 32.9687 34.0467 32.8753 34.1401C32.8087 34.2734 32.7487 34.4201 32.6953 34.5801C32.5887 34.7934 32.362 35.5267 32.0153 36.7801H31.3153C31.3153 35.2867 31.282 33.9734 31.2153 32.8401Z" />
    <path d="M19.3025 47.3801V46.6401C19.7025 46.6134 20.0092 46.5801 20.2225 46.5401C20.4492 46.5001 20.6492 46.4134 20.8225 46.2801C21.0092 46.1467 21.1025 45.9601 21.1025 45.7201C21.1558 44.0134 21.1825 41.9867 21.1825 39.6401C21.1825 37.2801 21.1558 35.4534 21.1025 34.1601C21.0892 33.8667 20.9825 33.6734 20.7825 33.5801C20.5958 33.4734 20.2492 33.4067 19.7425 33.3801L19.4625 33.3601V32.6201C20.1825 32.6734 21.0892 32.7001 22.1825 32.7001C23.2758 32.7001 24.1225 32.6801 24.7225 32.6401L29.9825 32.6201L30.2225 32.8401C30.1958 32.9467 30.1025 33.5534 29.9425 34.6601C29.7825 35.7667 29.6958 36.3934 29.6825 36.5401H29.0025C28.7492 35.1801 28.5892 34.4201 28.5225 34.2601C28.4692 34.0867 28.3758 33.9534 28.2425 33.8601C27.8025 33.7401 26.9958 33.6801 25.8225 33.6801C24.6625 33.6801 23.9625 33.7267 23.7225 33.8201C23.4825 33.9001 23.3558 34.0801 23.3425 34.3601C23.3158 35.0801 23.2892 36.6667 23.2625 39.1201C25.1425 39.1201 26.7825 39.0867 28.1825 39.0201L27.9825 40.5001H27.6425C27.1625 40.1534 25.6958 39.9801 23.2425 39.9801C23.2158 41.9534 23.2025 43.8667 23.2025 45.7201C23.2025 46.0401 23.4425 46.2534 23.9225 46.3601C24.4025 46.4534 25.2558 46.5001 26.4825 46.5001C27.7225 46.5001 28.4425 46.4201 28.6425 46.2601C28.9758 45.9667 29.3158 45.1534 29.6625 43.8201L29.9425 42.7401H30.6825C30.6425 43.0867 30.6025 43.8934 30.5625 45.1601C30.5225 46.4267 30.5025 47.1667 30.5025 47.3801H19.3025Z" />
    <path d="M0 33.3601V32.6201H4.56L4.74 33.1601L9.22 44.2801C10.8467 40.7467 12.36 37.0401 13.76 33.1601L13.94 32.6201H18.5V33.3601C17.38 33.4001 16.7067 33.5201 16.48 33.7201C16.3867 33.8134 16.34 33.9067 16.34 34.0001C16.34 34.0934 16.4667 37.7801 16.72 45.0601L16.74 45.6201C16.78 46.0334 16.9 46.3001 17.1 46.4201C17.3133 46.5267 17.7333 46.6001 18.36 46.6401V47.3801H12.82V46.6401C13.22 46.6134 13.5267 46.5801 13.74 46.5401C13.9667 46.5001 14.1667 46.4134 14.34 46.2801C14.5267 46.1467 14.62 45.9601 14.62 45.7201C14.58 43.1467 14.4333 39.7201 14.18 35.4401C12.3267 39.5067 10.6533 43.4867 9.16 47.3801H8.38L3.26 35.3601C3.06 38.8001 2.96 42.2534 2.96 45.7201C2.96 46.2001 3.55333 46.4934 4.74 46.6001V47.3801H0.02V46.6601C0.62 46.5934 1.03333 46.4201 1.26 46.1401C1.48667 45.8467 1.62667 45.3801 1.68 44.7401C1.94667 40.6334 2.1 37.4467 2.14 35.1801L2.16 34.0601C2.16 33.8067 1.98 33.6401 1.62 33.5601C1.27333 33.4667 0.733333 33.4001 0 33.3601Z" />
  </g>
  <defs>
    <clipPath id="clip0_1_213">
      <rect width="132.45" height="80" fill="white"/>
    </clipPath>
  </defs>
</svg>